# xmcd
#
# Track frame offsets: 
#        150
#        17845
#        36025
#        49105
#        69650
#        94152
#        109010
#        123307
#        135195
#        152002
#        187345
#        203097
#        220157
#        240410
#        254745
#        272290
#        279227
#        291870
#
# Disc length: 4096 seconds
#
# Revision: 0
# Processed by: cddbd v1.5PL3 Copyright (c) Steve Scherf et al.
# Submitted via: ExactAudioCopy v0.95a3
#
DISCID=030ffe12
DTITLE=Archers Of Loaf - White Trash Heroes (Jap Edition)
DYEAR=1998
DGENRE=Alternative
TTITLE0=Fashion Bleeds
TTITLE1=Dead Red Eyes
TTITLE2=I.N.S.
TTITLE3=Perfect Time
TTITLE4=Slick Tricks And Bright Lights
TTITLE5=One Slight Wrong Move
TTITLE6=Banging On A Dead Drum
TTITLE7=Smokers In Love
TTITLE8=After The Last Laugh
TTITLE9=White Trash Heroes
TTITLE10=Harnessed In Slums (Live)
TTITLE11=Underdogs Of Nipomo (Live)
TTITLE12=Greatest Of All Time (Live)
TTITLE13=Form And File (Live)
TTITLE14=Audio Whore (Live)
TTITLE15=Nostalgia (Live)
TTITLE16=Vocal Shrapnel (Remix)
TTITLE17=Scenic Pastures (Remix)
EXTD=
EXTT0=
EXTT1=
EXTT2=
EXTT3=
EXTT4=
EXTT5=
EXTT6=
EXTT7=
EXTT8=
EXTT9=
EXTT10=
EXTT11=
EXTT12=
EXTT13=
EXTT14=
EXTT15=
EXTT16=
EXTT17=
PLAYORDER=
